<?xml version="1.0" encoding="UTF-8" standalone="no"?>
<svg
   xmlns:dc="http://purl.org/dc/elements/1.1/"
   xmlns:cc="http://creativecommons.org/ns#"
   xmlns:rdf="http://www.w3.org/1999/02/22-rdf-syntax-ns#"
   xmlns:svg="http://www.w3.org/2000/svg"
   xmlns="http://www.w3.org/2000/svg"
   id="svg8"
   version="1.1"
   viewBox="0 0 10.583333 10.583334"
   height="40"
   width="40">
  <defs
     id="defs2" />
  <metadata
     id="metadata5">
    <rdf:RDF>
      <cc:Work
         rdf:about="">
        <dc:format>image/svg+xml</dc:format>
        <dc:type
           rdf:resource="http://purl.org/dc/dcmitype/StillImage" />
        <dc:title></dc:title>
      </cc:Work>
    </rdf:RDF>
  </metadata>
  <g
     transform="translate(0,-286.41665)"
     id="layer1">
    <g
       transform="matrix(0.98442647,0,0,0.98442647,-65.196071,167.16631)"
       aria-label="Y"
       style="font-style:italic;font-variant:normal;font-weight:normal;font-stretch:normal;font-size:8.46666622px;line-height:1.25;font-family:'Palace Script MT';-inkscape-font-specification:'Palace Script MT, Italic';font-variant-ligatures:normal;font-variant-caps:normal;font-variant-numeric:normal;font-feature-settings:normal;text-align:start;letter-spacing:0px;word-spacing:0px;writing-mode:lr-tb;text-anchor:start;fill:#000000;fill-opacity:1;stroke:none;stroke-width:0.26458332"
       id="text817">
      <path
         d="m 69.751054,123.44594 0.06201,0.008 q -0.06201,0.26872 -0.322461,0.56637 -0.260449,0.29353 -0.636654,0.48369 -0.37207,0.18604 -0.74414,0.18604 -0.157097,0 -0.289388,-0.0868 -0.132292,-0.0909 -0.132292,-0.30179 0,-0.31832 0.285254,-0.65319 0.285254,-0.33486 0.727604,-0.54983 0.446485,-0.21911 0.880567,-0.21911 0.719335,0 0.719335,0.64905 0,0.20258 -0.07441,0.40515 -0.07028,0.19843 -0.227376,0.41754 -0.152962,0.21911 -0.434082,0.52503 l -0.16123,0.17777 q -0.169499,0.1695 -0.169499,0.1695 -0.434082,0.45062 -0.611849,0.66559 -0.173633,0.21498 -0.173633,0.33073 0,0.0785 0.06615,0.14056 0.06615,0.0579 0.186035,0.0579 0.310059,0 0.661458,-0.1943 0.355534,-0.19431 0.657325,-0.46302 0.305924,-0.26872 0.496093,-0.48783 l 1.794206,-1.98851 h 0.355534 l -2.31097,2.6169 q -0.533301,0.60358 -0.930176,0.96324 -0.396875,0.35967 -0.810286,0.55811 -0.409278,0.1943 -0.859896,0.1943 -0.23151,0 -0.413411,-0.0661 -0.181901,-0.0703 -0.28112,-0.19844 -0.09922,-0.12816 -0.09922,-0.29352 0,-0.14883 0.07441,-0.23565 0.07441,-0.0868 0.21084,-0.0868 0.152962,0 0.152962,0.13642 0,0.12816 -0.136426,0.12816 -0.103352,0 -0.144694,-0.14469 -0.04134,0.0124 -0.07028,0.0744 -0.02894,0.062 -0.02894,0.12816 0,0.22324 0.210839,0.3638 0.21084,0.13643 0.525033,0.13643 0.409277,0 0.773079,-0.18191 0.367937,-0.1819 0.669727,-0.47542 0.305924,-0.29766 0.607715,-0.68213 0.30179,-0.38447 0.549837,-0.7028 -0.467155,0.52504 -0.909505,0.74414 -0.44235,0.21498 -0.72347,0.21498 -0.330729,0 -0.330729,-0.28939 0,-0.23978 0.194303,-0.57464 0.194303,-0.339 0.897103,-1.0418 0.401009,-0.40101 0.566373,-0.67386 0.169499,-0.27285 0.169499,-0.50436 0,-0.20671 -0.165364,-0.33073 -0.165365,-0.12402 -0.425814,-0.12402 -0.479557,0 -0.917774,0.22737 -0.438216,0.22324 -0.702799,0.5457 -0.260449,0.32247 -0.260449,0.58291 0,0.1571 0.103353,0.24805 0.103352,0.0868 0.268717,0.0868 0.380339,0 0.727604,-0.1819 0.3514,-0.18604 0.595313,-0.47129 0.248047,-0.28939 0.310058,-0.52917 z"
         style="font-style:italic;font-variant:normal;font-weight:normal;font-stretch:normal;font-size:8.46666622px;font-family:'Palace Script MT';-inkscape-font-specification:'Palace Script MT, Italic';font-variant-ligatures:normal;font-variant-caps:normal;font-variant-numeric:normal;font-feature-settings:normal;text-align:start;writing-mode:lr-tb;text-anchor:start;stroke-width:0.26458332"
         id="path4520" />
    </g>
    <g
       transform="matrix(0.98442647,0,0,0.98442647,-65.196071,167.16631)"
       aria-label="T"
       style="font-style:italic;font-variant:normal;font-weight:normal;font-stretch:normal;font-size:8.46666622px;line-height:1.25;font-family:'Palace Script MT';-inkscape-font-specification:'Palace Script MT, Italic';font-variant-ligatures:normal;font-variant-caps:normal;font-variant-numeric:normal;font-feature-settings:normal;text-align:start;letter-spacing:0px;word-spacing:0px;writing-mode:lr-tb;text-anchor:start;fill:#000000;fill-opacity:1;stroke:none;stroke-width:0.26458332"
       id="text821">
      <path
         d="m 72.94788,126.18079 h 0.05788 q -0.334863,0.678 -0.760677,1.017 -0.425814,0.33899 -0.744141,0.42581 -0.314192,0.0868 -0.475423,0.0868 -0.314193,0 -0.496094,-0.15297 -0.181901,-0.15296 -0.181901,-0.41341 0,-0.22324 0.152963,-0.50023 0.157096,-0.28112 0.479557,-0.53743 0.326595,-0.26045 0.835091,-0.42581 0.51263,-0.1695 1.198893,-0.1695 0.475423,0 1.244369,0.0744 0.706933,0.0703 1.066601,0.0703 0.3514,0 0.587044,-0.0413 0.235645,-0.0413 0.330729,-0.11162 h 0.07441 q -0.165364,0.14883 -0.549837,0.23978 -0.384472,0.0909 -0.686263,0.0909 -0.165364,0 -0.905371,-0.11162 -1.058333,-0.15297 -1.339453,-0.15297 -0.545703,0 -1.008724,0.15297 -0.463021,0.14882 -0.785481,0.40101 -0.318327,0.24804 -0.483692,0.52089 -0.16123,0.26872 -0.16123,0.5085 0,0.23151 0.165364,0.37207 0.169499,0.13643 0.438216,0.13643 0.206706,0 0.475424,-0.0951 0.272851,-0.0992 0.537434,-0.28112 0.268718,-0.18603 0.520899,-0.47542 0.252181,-0.28939 0.413411,-0.62839 z m -0.797884,1.77767 0.111621,-0.15296 q 1.021127,-1.42627 2.091862,-1.94717 l 0.04134,0.0331 q -0.37207,0.1943 -0.665592,0.41754 -0.289388,0.21911 -0.525033,0.50436 -0.23151,0.28112 -0.425813,0.62839 -0.355534,0.63665 -0.545703,0.93431 -0.19017,0.29352 -0.392741,0.5209 -0.28112,0.31006 -0.624252,0.5581 -0.338997,0.24805 -0.686263,0.40515 -0.347265,0.15709 -0.731738,0.23977 -0.380338,0.0827 -0.752409,0.0827 -0.491959,0 -0.719336,-0.1447 -0.223242,-0.14883 -0.223242,-0.37207 0,-0.14056 0.07855,-0.22737 0.07855,-0.0909 0.186036,-0.0909 0.186035,0 0.186035,0.16123 0,0.0537 -0.04134,0.0992 -0.03721,0.0413 -0.09508,0.0413 -0.194303,0 -0.128158,-0.22738 -0.07028,0.0413 -0.09922,0.0951 -0.02481,0.0538 -0.02481,0.14056 0,0.19844 0.219108,0.33487 0.223242,0.13229 0.620117,0.13229 0.599447,0 1.128613,-0.20257 0.529167,-0.20257 0.797884,-0.46716 0.161231,-0.15296 0.297657,-0.30179 0.136425,-0.15296 0.363802,-0.44235 0.227376,-0.28939 0.558105,-0.75241 z"
         style="font-style:italic;font-variant:normal;font-weight:normal;font-stretch:normal;font-size:8.46666622px;font-family:'Palace Script MT';-inkscape-font-specification:'Palace Script MT, Italic';font-variant-ligatures:normal;font-variant-caps:normal;font-variant-numeric:normal;font-feature-settings:normal;text-align:start;writing-mode:lr-tb;text-anchor:start;stroke-width:0.26458332"
         id="path4523" />
    </g>
  </g>
</svg>
